<?xml version="1.0" standalone="no"?><!DOCTYPE svg PUBLIC "-//W3C//DTD SVG 1.1//EN" "http://www.w3.org/Graphics/SVG/1.1/DTD/svg11.dtd"><svg t="1684677596587" class="icon" viewBox="0 0 1024 1024" version="1.1" xmlns="http://www.w3.org/2000/svg" p-id="7356" xmlns:xlink="http://www.w3.org/1999/xlink" width="200" height="200"><path d="M128 554.666667h42.666667v341.333333a42.666667 42.666667 0 0 0 42.666666 42.666667h597.333334a42.666667 42.666667 0 0 0 42.666666-42.666667v-341.333333h42.666667a42.666667 42.666667 0 0 0 30.165333-72.832l-384-384a42.624 42.624 0 0 0-60.330666 0l-384 384A42.666667 42.666667 0 0 0 128 554.666667z m469.333333 298.666666h-170.666666v-170.666666h170.666666v170.666666zM512 188.330667l283.690667 283.690666A42.752 42.752 0 0 0 768 512v341.333333h-85.333333v-213.333333a42.666667 42.666667 0 0 0-42.666667-42.666667H384a42.666667 42.666667 0 0 0-42.666667 42.666667v213.333333H256v-341.333333c0-18.304-11.52-33.877333-27.690667-39.978667L512 188.330667z" fill="#625e81" p-id="7357"></path></svg>